<?xml version="1.0" encoding="UTF-8" standalone="no"?>
<!DOCTYPE svg PUBLIC "-//W3C//DTD SVG 1.1//EN"
 "http://www.w3.org/Graphics/SVG/1.1/DTD/svg11.dtd">
<!-- Generated by graphviz version 2.47.0 (20210316.0004)
 -->
<!-- Title: dependencies Pages: 1 -->
<svg width="608pt" height="284pt"
 viewBox="0.00 0.00 608.00 284.00" xmlns="http://www.w3.org/2000/svg" xmlns:xlink="http://www.w3.org/1999/xlink">
<g id="graph0" class="graph" transform="scale(1 1) rotate(0) translate(4 280)">
<title>dependencies</title>
<polygon fill="white" stroke="transparent" points="-4,4 -4,-280 604,-280 604,4 -4,4"/>
<text text-anchor="start" x="279.01" y="-42.4" font-family="Times-12" font-weight="bold" font-size="14.00">Legend</text>
<polygon fill="#ffffb3" stroke="transparent" points="66,-10 66,-30 86,-30 86,-10 66,-10"/>
<text text-anchor="start" x="89.63" y="-15.4" font-family="Times-12" font-size="14.00"> &#160;Declarations</text>
<polygon fill="#8dd3c7" stroke="transparent" points="179,-10 179,-30 199,-30 199,-10 179,-10"/>
<text text-anchor="start" x="202.73" y="-15.4" font-family="Times-12" font-size="14.00"> &#160;Module</text>
<polygon fill="#80b1d3" stroke="transparent" points="265,-10 265,-30 285,-30 285,-10 265,-10"/>
<text text-anchor="start" x="288.78" y="-15.4" font-family="Times-12" font-size="14.00"> &#160;Bootstrap</text>
<polygon fill="#fdb462" stroke="transparent" points="362,-10 362,-30 382,-30 382,-10 362,-10"/>
<text text-anchor="start" x="385.67" y="-15.4" font-family="Times-12" font-size="14.00"> &#160;Providers</text>
<polygon fill="#fb8072" stroke="transparent" points="458,-10 458,-30 478,-30 478,-10 458,-10"/>
<text text-anchor="start" x="481.73" y="-15.4" font-family="Times-12" font-size="14.00"> &#160;Exports</text>
<g id="clust1" class="cluster">
<title>cluster_RestaurantsModule</title>
<polygon fill="none" stroke="black" stroke-dasharray="1,5" points="8,-70 8,-268 592,-268 592,-70 8,-70"/>
</g>
<g id="clust3" class="cluster">
<title>cluster_RestaurantsModule_imports</title>
<polygon fill="none" stroke="black" points="210,-78 210,-130 584,-130 584,-78 210,-78"/>
</g>
<g id="clust4" class="cluster">
<title>cluster_RestaurantsModule_exports</title>
<polygon fill="none" stroke="black" points="258,-208 258,-260 400,-260 400,-208 258,-208"/>
</g>
<g id="clust6" class="cluster">
<title>cluster_RestaurantsModule_providers</title>
<polygon fill="none" stroke="black" points="16,-78 16,-130 202,-130 202,-78 16,-78"/>
</g>
<!-- MenusModule -->
<g id="node1" class="node">
<title>MenusModule</title>
<polygon fill="#8dd3c7" stroke="black" points="575.65,-122 572.65,-126 551.65,-126 548.65,-122 478.35,-122 478.35,-86 575.65,-86 575.65,-122"/>
<text text-anchor="middle" x="527" y="-99.8" font-family="Times,serif" font-size="14.00">MenusModule</text>
</g>
<!-- RestaurantsModule -->
<g id="node4" class="node">
<title>RestaurantsModule</title>
<polygon fill="#8dd3c7" stroke="black" points="391.36,-187 388.36,-191 367.36,-191 364.36,-187 266.64,-187 266.64,-151 391.36,-151 391.36,-187"/>
<text text-anchor="middle" x="329" y="-164.8" font-family="Times,serif" font-size="14.00">RestaurantsModule</text>
</g>
<!-- MenusModule&#45;&gt;RestaurantsModule -->
<g id="edge1" class="edge">
<title>MenusModule&#45;&gt;RestaurantsModule</title>
<path fill="none" stroke="black" d="M527,-122.11C527,-141.34 527,-169 527,-169 527,-169 401.38,-169 401.38,-169"/>
<polygon fill="black" stroke="black" points="401.38,-165.5 391.38,-169 401.38,-172.5 401.38,-165.5"/>
</g>
<!-- ReservationsModule -->
<g id="node2" class="node">
<title>ReservationsModule</title>
<polygon fill="#8dd3c7" stroke="black" points="459.86,-122 456.86,-126 435.86,-126 432.86,-122 328.14,-122 328.14,-86 459.86,-86 459.86,-122"/>
<text text-anchor="middle" x="394" y="-99.8" font-family="Times,serif" font-size="14.00">ReservationsModule</text>
</g>
<!-- ReservationsModule&#45;&gt;RestaurantsModule -->
<g id="edge2" class="edge">
<title>ReservationsModule&#45;&gt;RestaurantsModule</title>
<path fill="none" stroke="black" d="M359.75,-122.11C359.75,-122.11 359.75,-140.99 359.75,-140.99"/>
<polygon fill="black" stroke="black" points="356.25,-140.99 359.75,-150.99 363.25,-140.99 356.25,-140.99"/>
</g>
<!-- UsersModule -->
<g id="node3" class="node">
<title>UsersModule</title>
<polygon fill="#8dd3c7" stroke="black" points="309.92,-122 306.92,-126 285.92,-126 282.92,-122 218.08,-122 218.08,-86 309.92,-86 309.92,-122"/>
<text text-anchor="middle" x="264" y="-99.8" font-family="Times,serif" font-size="14.00">UsersModule</text>
</g>
<!-- UsersModule&#45;&gt;RestaurantsModule -->
<g id="edge3" class="edge">
<title>UsersModule&#45;&gt;RestaurantsModule</title>
<path fill="none" stroke="black" d="M288.14,-122.11C288.14,-122.11 288.14,-140.99 288.14,-140.99"/>
<polygon fill="black" stroke="black" points="284.64,-140.99 288.14,-150.99 291.64,-140.99 284.64,-140.99"/>
</g>
<!-- RestaurantsService  -->
<g id="node5" class="node">
<title>RestaurantsService </title>
<polygon fill="#fb8072" stroke="black" points="392.29,-252 265.71,-252 265.71,-216 392.29,-216 392.29,-252"/>
<text text-anchor="middle" x="329" y="-229.8" font-family="Times,serif" font-size="14.00">RestaurantsService </text>
</g>
<!-- RestaurantsModule&#45;&gt;RestaurantsService  -->
<g id="edge4" class="edge">
<title>RestaurantsModule&#45;&gt;RestaurantsService </title>
<path fill="none" stroke="black" stroke-dasharray="5,2" d="M329,-187.11C329,-187.11 329,-205.99 329,-205.99"/>
<polygon fill="black" stroke="black" points="325.5,-205.99 329,-215.99 332.5,-205.99 325.5,-205.99"/>
</g>
<!-- RestaurantsService -->
<g id="node6" class="node">
<title>RestaurantsService</title>
<ellipse fill="#fdb462" stroke="black" cx="109" cy="-104" rx="85.09" ry="18"/>
<text text-anchor="middle" x="109" y="-99.8" font-family="Times,serif" font-size="14.00">RestaurantsService</text>
</g>
<!-- RestaurantsService&#45;&gt;RestaurantsModule -->
<g id="edge5" class="edge">
<title>RestaurantsService&#45;&gt;RestaurantsModule</title>
<path fill="none" stroke="black" d="M109,-122.11C109,-141.34 109,-169 109,-169 109,-169 256.55,-169 256.55,-169"/>
<polygon fill="black" stroke="black" points="256.55,-172.5 266.55,-169 256.55,-165.5 256.55,-172.5"/>
</g>
</g>
</svg>
