<?xml version="1.0" encoding="UTF-8" standalone="no"?>
<!DOCTYPE svg PUBLIC "-//W3C//DTD SVG 1.1//EN"
 "http://www.w3.org/Graphics/SVG/1.1/DTD/svg11.dtd">
<!-- Generated by graphviz version 2.47.0 (20210316.0004)
 -->
<!-- Title: dependencies Pages: 1 -->
<svg width="504pt" height="284pt"
 viewBox="0.00 0.00 504.00 284.00" xmlns="http://www.w3.org/2000/svg" xmlns:xlink="http://www.w3.org/1999/xlink">
<g id="graph0" class="graph" transform="scale(1 1) rotate(0) translate(4 280)">
<title>dependencies</title>
<polygon fill="white" stroke="transparent" points="-4,4 -4,-280 500,-280 500,4 -4,4"/>
<text text-anchor="start" x="227.01" y="-42.4" font-family="Times-12" font-weight="bold" font-size="14.00">Legend</text>
<polygon fill="#ffffb3" stroke="transparent" points="14,-10 14,-30 34,-30 34,-10 14,-10"/>
<text text-anchor="start" x="37.63" y="-15.4" font-family="Times-12" font-size="14.00"> &#160;Declarations</text>
<polygon fill="#8dd3c7" stroke="transparent" points="127,-10 127,-30 147,-30 147,-10 127,-10"/>
<text text-anchor="start" x="150.73" y="-15.4" font-family="Times-12" font-size="14.00"> &#160;Module</text>
<polygon fill="#80b1d3" stroke="transparent" points="213,-10 213,-30 233,-30 233,-10 213,-10"/>
<text text-anchor="start" x="236.78" y="-15.4" font-family="Times-12" font-size="14.00"> &#160;Bootstrap</text>
<polygon fill="#fdb462" stroke="transparent" points="310,-10 310,-30 330,-30 330,-10 310,-10"/>
<text text-anchor="start" x="333.67" y="-15.4" font-family="Times-12" font-size="14.00"> &#160;Providers</text>
<polygon fill="#fb8072" stroke="transparent" points="406,-10 406,-30 426,-30 426,-10 406,-10"/>
<text text-anchor="start" x="429.73" y="-15.4" font-family="Times-12" font-size="14.00"> &#160;Exports</text>
<g id="clust1" class="cluster">
<title>cluster_RestaurantsModule</title>
<polygon fill="none" stroke="black" stroke-dasharray="1,5" points="11,-70 11,-268 485,-268 485,-70 11,-70"/>
</g>
<g id="clust6" class="cluster">
<title>cluster_RestaurantsModule_providers</title>
<polygon fill="none" stroke="black" points="291,-78 291,-130 477,-130 477,-78 291,-78"/>
</g>
<g id="clust3" class="cluster">
<title>cluster_RestaurantsModule_imports</title>
<polygon fill="none" stroke="black" points="19,-78 19,-130 283,-130 283,-78 19,-78"/>
</g>
<g id="clust4" class="cluster">
<title>cluster_RestaurantsModule_exports</title>
<polygon fill="none" stroke="black" points="155,-208 155,-260 297,-260 297,-208 155,-208"/>
</g>
<!-- MenusModule -->
<g id="node1" class="node">
<title>MenusModule</title>
<polygon fill="#8dd3c7" stroke="black" points="274.65,-122 271.65,-126 250.65,-126 247.65,-122 177.35,-122 177.35,-86 274.65,-86 274.65,-122"/>
<text text-anchor="middle" x="226" y="-99.8" font-family="Times,serif" font-size="14.00">MenusModule</text>
</g>
<!-- RestaurantsModule -->
<g id="node3" class="node">
<title>RestaurantsModule</title>
<polygon fill="#8dd3c7" stroke="black" points="288.36,-187 285.36,-191 264.36,-191 261.36,-187 163.64,-187 163.64,-151 288.36,-151 288.36,-187"/>
<text text-anchor="middle" x="226" y="-164.8" font-family="Times,serif" font-size="14.00">RestaurantsModule</text>
</g>
<!-- MenusModule&#45;&gt;RestaurantsModule -->
<g id="edge1" class="edge">
<title>MenusModule&#45;&gt;RestaurantsModule</title>
<path fill="none" stroke="black" d="M226,-122.11C226,-122.11 226,-140.99 226,-140.99"/>
<polygon fill="black" stroke="black" points="222.5,-140.99 226,-150.99 229.5,-140.99 222.5,-140.99"/>
</g>
<!-- ReservationsModule -->
<g id="node2" class="node">
<title>ReservationsModule</title>
<polygon fill="#8dd3c7" stroke="black" points="158.86,-122 155.86,-126 134.86,-126 131.86,-122 27.14,-122 27.14,-86 158.86,-86 158.86,-122"/>
<text text-anchor="middle" x="93" y="-99.8" font-family="Times,serif" font-size="14.00">ReservationsModule</text>
</g>
<!-- ReservationsModule&#45;&gt;RestaurantsModule -->
<g id="edge2" class="edge">
<title>ReservationsModule&#45;&gt;RestaurantsModule</title>
<path fill="none" stroke="black" d="M158.95,-104C165.83,-104 170.37,-104 170.37,-104 170.37,-104 170.37,-140.89 170.37,-140.89"/>
<polygon fill="black" stroke="black" points="166.87,-140.89 170.37,-150.89 173.87,-140.89 166.87,-140.89"/>
</g>
<!-- RestaurantsService  -->
<g id="node4" class="node">
<title>RestaurantsService </title>
<polygon fill="#fb8072" stroke="black" points="289.29,-252 162.71,-252 162.71,-216 289.29,-216 289.29,-252"/>
<text text-anchor="middle" x="226" y="-229.8" font-family="Times,serif" font-size="14.00">RestaurantsService </text>
</g>
<!-- RestaurantsModule&#45;&gt;RestaurantsService  -->
<g id="edge3" class="edge">
<title>RestaurantsModule&#45;&gt;RestaurantsService </title>
<path fill="none" stroke="black" stroke-dasharray="5,2" d="M226,-187.11C226,-187.11 226,-205.99 226,-205.99"/>
<polygon fill="black" stroke="black" points="222.5,-205.99 226,-215.99 229.5,-205.99 222.5,-205.99"/>
</g>
<!-- RestaurantsService -->
<g id="node5" class="node">
<title>RestaurantsService</title>
<ellipse fill="#fdb462" stroke="black" cx="384" cy="-104" rx="85.09" ry="18"/>
<text text-anchor="middle" x="384" y="-99.8" font-family="Times,serif" font-size="14.00">RestaurantsService</text>
</g>
<!-- RestaurantsService&#45;&gt;RestaurantsModule -->
<g id="edge4" class="edge">
<title>RestaurantsService&#45;&gt;RestaurantsModule</title>
<path fill="none" stroke="black" d="M298.53,-104C288.43,-104 281.63,-104 281.63,-104 281.63,-104 281.63,-140.89 281.63,-140.89"/>
<polygon fill="black" stroke="black" points="278.13,-140.89 281.63,-150.89 285.13,-140.89 278.13,-140.89"/>
</g>
</g>
</svg>
