<?xml version="1.0" encoding="UTF-8" standalone="no"?>
<!DOCTYPE svg PUBLIC "-//W3C//DTD SVG 1.1//EN"
 "http://www.w3.org/Graphics/SVG/1.1/DTD/svg11.dtd">
<!-- Generated by graphviz version 2.47.0 (20210316.0004)
 -->
<!-- Title: dependencies Pages: 1 -->
<svg width="504pt" height="211pt"
 viewBox="0.00 0.00 504.00 211.00" xmlns="http://www.w3.org/2000/svg" xmlns:xlink="http://www.w3.org/1999/xlink">
<g id="graph0" class="graph" transform="scale(1 1) rotate(0) translate(4 207)">
<title>dependencies</title>
<polygon fill="white" stroke="transparent" points="-4,4 -4,-207 500,-207 500,4 -4,4"/>
<text text-anchor="start" x="227.01" y="-42.4" font-family="Times-12" font-weight="bold" font-size="14.00">Legend</text>
<polygon fill="#ffffb3" stroke="transparent" points="14,-10 14,-30 34,-30 34,-10 14,-10"/>
<text text-anchor="start" x="37.63" y="-15.4" font-family="Times-12" font-size="14.00"> &#160;Declarations</text>
<polygon fill="#8dd3c7" stroke="transparent" points="127,-10 127,-30 147,-30 147,-10 127,-10"/>
<text text-anchor="start" x="150.73" y="-15.4" font-family="Times-12" font-size="14.00"> &#160;Module</text>
<polygon fill="#80b1d3" stroke="transparent" points="213,-10 213,-30 233,-30 233,-10 213,-10"/>
<text text-anchor="start" x="236.78" y="-15.4" font-family="Times-12" font-size="14.00"> &#160;Bootstrap</text>
<polygon fill="#fdb462" stroke="transparent" points="310,-10 310,-30 330,-30 330,-10 310,-10"/>
<text text-anchor="start" x="333.67" y="-15.4" font-family="Times-12" font-size="14.00"> &#160;Providers</text>
<polygon fill="#fb8072" stroke="transparent" points="406,-10 406,-30 426,-30 426,-10 406,-10"/>
<text text-anchor="start" x="429.73" y="-15.4" font-family="Times-12" font-size="14.00"> &#160;Exports</text>
<g id="clust1" class="cluster">
<title>cluster_ReservationsModule</title>
<polygon fill="none" stroke="black" stroke-dasharray="1,5" points="84,-70 84,-195 412,-195 412,-70 84,-70"/>
</g>
<g id="clust3" class="cluster">
<title>cluster_ReservationsModule_imports</title>
<polygon fill="none" stroke="black" points="296,-78 296,-130 404,-130 404,-78 296,-78"/>
</g>
<g id="clust6" class="cluster">
<title>cluster_ReservationsModule_providers</title>
<polygon fill="none" stroke="black" points="92,-78 92,-130 288,-130 288,-78 92,-78"/>
</g>
<!-- UsersModule -->
<g id="node1" class="node">
<title>UsersModule</title>
<polygon fill="#8dd3c7" stroke="black" points="395.92,-122 392.92,-126 371.92,-126 368.92,-122 304.08,-122 304.08,-86 395.92,-86 395.92,-122"/>
<text text-anchor="middle" x="350" y="-99.8" font-family="Times,serif" font-size="14.00">UsersModule</text>
</g>
<!-- ReservationsModule -->
<g id="node2" class="node">
<title>ReservationsModule</title>
<polygon fill="#8dd3c7" stroke="black" points="329.86,-187 326.86,-191 305.86,-191 302.86,-187 198.14,-187 198.14,-151 329.86,-151 329.86,-187"/>
<text text-anchor="middle" x="264" y="-164.8" font-family="Times,serif" font-size="14.00">ReservationsModule</text>
</g>
<!-- UsersModule&#45;&gt;ReservationsModule -->
<g id="edge1" class="edge">
<title>UsersModule&#45;&gt;ReservationsModule</title>
<path fill="none" stroke="black" d="M317.11,-122.11C317.11,-122.11 317.11,-140.99 317.11,-140.99"/>
<polygon fill="black" stroke="black" points="313.61,-140.99 317.11,-150.99 320.61,-140.99 313.61,-140.99"/>
</g>
<!-- ReservationsService -->
<g id="node3" class="node">
<title>ReservationsService</title>
<ellipse fill="#fdb462" stroke="black" cx="190" cy="-104" rx="89.74" ry="18"/>
<text text-anchor="middle" x="190" y="-99.8" font-family="Times,serif" font-size="14.00">ReservationsService</text>
</g>
<!-- ReservationsService&#45;&gt;ReservationsModule -->
<g id="edge2" class="edge">
<title>ReservationsService&#45;&gt;ReservationsModule</title>
<path fill="none" stroke="black" d="M238.97,-119.4C238.97,-119.4 238.97,-140.94 238.97,-140.94"/>
<polygon fill="black" stroke="black" points="235.47,-140.94 238.97,-150.94 242.47,-140.94 235.47,-140.94"/>
</g>
</g>
</svg>
