<?xml version="1.0" encoding="UTF-8" standalone="no"?>
<!DOCTYPE svg PUBLIC "-//W3C//DTD SVG 1.1//EN"
 "http://www.w3.org/Graphics/SVG/1.1/DTD/svg11.dtd">
<!-- Generated by graphviz version 2.47.0 (20210316.0004)
 -->
<!-- Title: dependencies Pages: 1 -->
<svg width="1162pt" height="211pt"
 viewBox="0.00 0.00 1162.00 211.00" xmlns="http://www.w3.org/2000/svg" xmlns:xlink="http://www.w3.org/1999/xlink">
<g id="graph0" class="graph" transform="scale(1 1) rotate(0) translate(4 207)">
<title>dependencies</title>
<polygon fill="white" stroke="transparent" points="-4,4 -4,-207 1158,-207 1158,4 -4,4"/>
<text text-anchor="start" x="556.01" y="-42.4" font-family="Times-12" font-weight="bold" font-size="14.00">Legend</text>
<polygon fill="#ffffb3" stroke="transparent" points="343,-10 343,-30 363,-30 363,-10 343,-10"/>
<text text-anchor="start" x="366.63" y="-15.4" font-family="Times-12" font-size="14.00"> &#160;Declarations</text>
<polygon fill="#8dd3c7" stroke="transparent" points="456,-10 456,-30 476,-30 476,-10 456,-10"/>
<text text-anchor="start" x="479.73" y="-15.4" font-family="Times-12" font-size="14.00"> &#160;Module</text>
<polygon fill="#80b1d3" stroke="transparent" points="542,-10 542,-30 562,-30 562,-10 542,-10"/>
<text text-anchor="start" x="565.78" y="-15.4" font-family="Times-12" font-size="14.00"> &#160;Bootstrap</text>
<polygon fill="#fdb462" stroke="transparent" points="639,-10 639,-30 659,-30 659,-10 639,-10"/>
<text text-anchor="start" x="662.67" y="-15.4" font-family="Times-12" font-size="14.00"> &#160;Providers</text>
<polygon fill="#fb8072" stroke="transparent" points="735,-10 735,-30 755,-30 755,-10 735,-10"/>
<text text-anchor="start" x="758.73" y="-15.4" font-family="Times-12" font-size="14.00"> &#160;Exports</text>
<g id="clust1" class="cluster">
<title>cluster_AppModule</title>
<polygon fill="none" stroke="black" stroke-dasharray="1,5" points="8,-70 8,-195 1146,-195 1146,-70 8,-70"/>
</g>
<g id="clust6" class="cluster">
<title>cluster_AppModule_providers</title>
<polygon fill="none" stroke="black" points="855,-78 855,-130 1138,-130 1138,-78 855,-78"/>
</g>
<g id="clust3" class="cluster">
<title>cluster_AppModule_imports</title>
<polygon fill="none" stroke="black" points="16,-78 16,-130 847,-130 847,-78 16,-78"/>
</g>
<!-- AuthModule -->
<g id="node1" class="node">
<title>AuthModule</title>
<polygon fill="#8dd3c7" stroke="black" points="838.55,-122 835.55,-126 814.55,-126 811.55,-122 751.45,-122 751.45,-86 838.55,-86 838.55,-122"/>
<text text-anchor="middle" x="795" y="-99.8" font-family="Times,serif" font-size="14.00">AuthModule</text>
</g>
<!-- AppModule -->
<g id="node8" class="node">
<title>AppModule</title>
<polygon fill="#8dd3c7" stroke="black" points="589.66,-187 586.66,-191 565.66,-191 562.66,-187 506.34,-187 506.34,-151 589.66,-151 589.66,-187"/>
<text text-anchor="middle" x="548" y="-164.8" font-family="Times,serif" font-size="14.00">AppModule</text>
</g>
<!-- AuthModule&#45;&gt;AppModule -->
<g id="edge1" class="edge">
<title>AuthModule&#45;&gt;AppModule</title>
<path fill="none" stroke="black" d="M795,-122.27C795,-140.56 795,-166 795,-166 795,-166 599.9,-166 599.9,-166"/>
<polygon fill="black" stroke="black" points="599.9,-162.5 589.9,-166 599.9,-169.5 599.9,-162.5"/>
</g>
<!-- CommonModule -->
<g id="node2" class="node">
<title>CommonModule</title>
<polygon fill="#8dd3c7" stroke="black" points="732.67,-122 729.67,-126 708.67,-126 705.67,-122 621.33,-122 621.33,-86 732.67,-86 732.67,-122"/>
<text text-anchor="middle" x="677" y="-99.8" font-family="Times,serif" font-size="14.00">CommonModule</text>
</g>
<!-- CommonModule&#45;&gt;AppModule -->
<g id="edge2" class="edge">
<title>CommonModule&#45;&gt;AppModule</title>
<path fill="none" stroke="black" d="M677,-122.01C677,-138.05 677,-159 677,-159 677,-159 599.88,-159 599.88,-159"/>
<polygon fill="black" stroke="black" points="599.88,-155.5 589.88,-159 599.88,-162.5 599.88,-155.5"/>
</g>
<!-- DatabaseModule -->
<g id="node3" class="node">
<title>DatabaseModule</title>
<polygon fill="#8dd3c7" stroke="black" points="603.35,-122 600.35,-126 579.35,-126 576.35,-122 492.65,-122 492.65,-86 603.35,-86 603.35,-122"/>
<text text-anchor="middle" x="548" y="-99.8" font-family="Times,serif" font-size="14.00">DatabaseModule</text>
</g>
<!-- DatabaseModule&#45;&gt;AppModule -->
<g id="edge3" class="edge">
<title>DatabaseModule&#45;&gt;AppModule</title>
<path fill="none" stroke="black" d="M534.06,-122.11C534.06,-122.11 534.06,-140.99 534.06,-140.99"/>
<polygon fill="black" stroke="black" points="530.56,-140.99 534.06,-150.99 537.56,-140.99 530.56,-140.99"/>
</g>
<!-- DatabaseModule&#45;&gt;AppModule -->
<g id="edge4" class="edge">
<title>DatabaseModule&#45;&gt;AppModule</title>
<path fill="none" stroke="black" d="M561.94,-122.11C561.94,-122.11 561.94,-140.99 561.94,-140.99"/>
<polygon fill="black" stroke="black" points="558.44,-140.99 561.94,-150.99 565.44,-140.99 558.44,-140.99"/>
</g>
<!-- LoggerModule -->
<g id="node4" class="node">
<title>LoggerModule</title>
<polygon fill="#8dd3c7" stroke="black" points="474.98,-122 471.98,-126 450.98,-126 447.98,-122 375.02,-122 375.02,-86 474.98,-86 474.98,-122"/>
<text text-anchor="middle" x="425" y="-99.8" font-family="Times,serif" font-size="14.00">LoggerModule</text>
</g>
<!-- LoggerModule&#45;&gt;AppModule -->
<g id="edge5" class="edge">
<title>LoggerModule&#45;&gt;AppModule</title>
<path fill="none" stroke="black" d="M425,-122.01C425,-138.05 425,-159 425,-159 425,-159 496.01,-159 496.01,-159"/>
<polygon fill="black" stroke="black" points="496.01,-162.5 506.01,-159 496.01,-155.5 496.01,-162.5"/>
</g>
<!-- RestaurantsModule -->
<g id="node5" class="node">
<title>RestaurantsModule</title>
<polygon fill="#8dd3c7" stroke="black" points="357.36,-122 354.36,-126 333.36,-126 330.36,-122 232.64,-122 232.64,-86 357.36,-86 357.36,-122"/>
<text text-anchor="middle" x="295" y="-99.8" font-family="Times,serif" font-size="14.00">RestaurantsModule</text>
</g>
<!-- RestaurantsModule&#45;&gt;AppModule -->
<g id="edge6" class="edge">
<title>RestaurantsModule&#45;&gt;AppModule</title>
<path fill="none" stroke="black" d="M295,-122.27C295,-140.56 295,-166 295,-166 295,-166 496.22,-166 496.22,-166"/>
<polygon fill="black" stroke="black" points="496.22,-169.5 506.22,-166 496.22,-162.5 496.22,-169.5"/>
</g>
<!-- UsersModule -->
<g id="node6" class="node">
<title>UsersModule</title>
<polygon fill="#8dd3c7" stroke="black" points="214.92,-122 211.92,-126 190.92,-126 187.92,-122 123.08,-122 123.08,-86 214.92,-86 214.92,-122"/>
<text text-anchor="middle" x="169" y="-99.8" font-family="Times,serif" font-size="14.00">UsersModule</text>
</g>
<!-- UsersModule&#45;&gt;AppModule -->
<g id="edge7" class="edge">
<title>UsersModule&#45;&gt;AppModule</title>
<path fill="none" stroke="black" d="M169,-122.13C169,-142.57 169,-173 169,-173 169,-173 495.99,-173 495.99,-173"/>
<polygon fill="black" stroke="black" points="495.99,-176.5 505.99,-173 495.99,-169.5 495.99,-176.5"/>
</g>
<!-- UtilModule -->
<g id="node7" class="node">
<title>UtilModule</title>
<polygon fill="#8dd3c7" stroke="black" points="105.83,-122 102.83,-126 81.83,-126 78.83,-122 24.17,-122 24.17,-86 105.83,-86 105.83,-122"/>
<text text-anchor="middle" x="65" y="-99.8" font-family="Times,serif" font-size="14.00">UtilModule</text>
</g>
<!-- UtilModule&#45;&gt;AppModule -->
<g id="edge8" class="edge">
<title>UtilModule&#45;&gt;AppModule</title>
<path fill="none" stroke="black" d="M65,-122.01C65,-144.49 65,-180 65,-180 65,-180 495.98,-180 495.98,-180"/>
<polygon fill="black" stroke="black" points="495.98,-183.5 505.98,-180 495.98,-176.5 495.98,-183.5"/>
</g>
<!-- AppService -->
<g id="node9" class="node">
<title>AppService</title>
<ellipse fill="#fdb462" stroke="black" cx="1073" cy="-104" rx="56.74" ry="18"/>
<text text-anchor="middle" x="1073" y="-99.8" font-family="Times,serif" font-size="14.00">AppService</text>
</g>
<!-- AppService&#45;&gt;AppModule -->
<g id="edge9" class="edge">
<title>AppService&#45;&gt;AppModule</title>
<path fill="none" stroke="black" d="M1073,-122.01C1073,-144.49 1073,-180 1073,-180 1073,-180 600.08,-180 600.08,-180"/>
<polygon fill="black" stroke="black" points="600.08,-176.5 590.08,-180 600.08,-183.5 600.08,-176.5"/>
</g>
<!-- LoggerService -->
<g id="node10" class="node">
<title>LoggerService</title>
<ellipse fill="#fdb462" stroke="black" cx="931" cy="-104" rx="67.76" ry="18"/>
<text text-anchor="middle" x="931" y="-99.8" font-family="Times,serif" font-size="14.00">LoggerService</text>
</g>
<!-- LoggerService&#45;&gt;AppModule -->
<g id="edge10" class="edge">
<title>LoggerService&#45;&gt;AppModule</title>
<path fill="none" stroke="black" d="M931,-122.13C931,-142.57 931,-173 931,-173 931,-173 599.72,-173 599.72,-173"/>
<polygon fill="black" stroke="black" points="599.72,-169.5 589.72,-173 599.72,-176.5 599.72,-169.5"/>
</g>
</g>
</svg>
